<svg width="59" height="50" viewBox="0 0 59 50" fill="none" xmlns="http://www.w3.org/2000/svg">
<path d="M15.7671 42.1737C15.3967 42.1747 15.0304 42.1 14.6922 41.9546C13.7996 41.5472 13.4125 40.822 13.4125 39.8715C13.4125 35.6045 13.4125 31.3365 13.4125 27.0675C13.4253 21.7781 13.4317 16.4804 13.4317 11.1744C13.4277 10.8374 13.4839 10.5023 13.5981 10.1838C13.918 9.32897 14.7497 8.85372 15.7863 8.85372H41.2832C41.5955 8.8452 41.9063 8.8992 42.1959 9.01231C42.4855 9.12541 42.7477 9.29518 42.9659 9.5109C43.1841 9.72662 43.3537 9.98361 43.4638 10.2657C43.5739 10.5477 43.6223 10.8488 43.6058 11.1497V29.7616H46.5874V24.3179C46.5874 19.8925 46.5874 15.4692 46.5874 11.0479C46.5964 10.3748 46.4654 9.70681 46.202 9.08348C45.9385 8.46014 45.5481 7.89415 45.0538 7.41903C44.5595 6.94391 43.9713 6.56933 43.3242 6.31748C42.6771 6.06563 41.9841 5.94164 41.2864 5.95285H37.7898C30.3998 5.95285 23.0088 5.95285 15.6167 5.95285C14.5333 5.95771 13.4785 6.28899 12.5998 6.90038C11.7211 7.51177 11.0623 8.37273 10.7157 9.36292C10.5877 9.73016 10.5205 10.1159 10.4277 10.4924V40.5011C10.4437 40.5689 10.4533 40.6368 10.4757 40.7047C10.5989 41.2434 10.7723 41.7701 10.994 42.2786C12.0081 44.1302 13.6364 45.056 15.8182 45.056C20.2799 45.056 24.7438 45.056 29.2098 45.056C29.2961 45.056 29.3793 45.056 29.4689 45.056V42.1922H29.0146C24.5977 42.186 20.1818 42.1799 15.7671 42.1737Z" fill="#0CFFD1"/>
<path d="M50.5961 32.7952C50.4259 32.666 50.2308 32.5708 50.022 32.5152C49.8133 32.4595 49.5951 32.4447 49.3803 32.4714C49.1655 32.4981 48.9584 32.5659 48.7711 32.6708C48.5838 32.7757 48.4201 32.9156 48.2895 33.0822C46.2997 35.3628 44.2874 37.6218 42.2848 39.8715C41.5874 40.6615 40.8932 41.4516 40.1766 42.2601L38.9833 41.3713L35.2659 38.5939C35.1024 38.4494 34.9096 38.3394 34.6997 38.2706C34.4898 38.2019 34.2673 38.176 34.0464 38.1946C33.8256 38.2131 33.6112 38.2758 33.4167 38.3786C33.2223 38.4814 33.0522 38.622 32.9171 38.7916C32.782 38.9612 32.685 39.156 32.6321 39.3637C32.5792 39.5714 32.5717 39.7874 32.6099 39.9981C32.6482 40.2087 32.7314 40.4094 32.8544 40.5873C32.9773 40.7653 33.1373 40.9167 33.324 41.0319C35.316 42.5317 37.3144 44.0274 39.3192 45.519C40.151 46.1362 41.0307 46.0436 41.7153 45.2659L48.4335 37.6835C49.2173 36.7916 50.0074 35.906 50.788 35.011C50.9327 34.8563 51.0429 34.6746 51.112 34.4771C51.181 34.2797 51.2073 34.0707 51.1893 33.863C51.1713 33.6554 51.1094 33.4535 51.0074 33.2698C50.9053 33.0862 50.7654 32.9247 50.5961 32.7952Z" fill="#0CFFD1"/>
<path d="M33.0418 32.536C34.4878 32.536 35.921 32.536 37.383 32.536C37.8073 32.5233 38.2089 32.3486 38.4996 32.0502C38.7903 31.7519 38.9462 31.3544 38.933 30.9451C38.9199 30.5359 38.7387 30.1485 38.4295 29.8681C38.1202 29.5877 37.7081 29.4373 37.2839 29.45H22.2192C21.1667 29.45 20.1174 29.45 19.0649 29.45C18.8548 29.4485 18.6465 29.487 18.4519 29.5633C18.2573 29.6395 18.0801 29.752 17.9306 29.8943C17.6285 30.1816 17.4571 30.5729 17.4541 30.9822C17.4512 31.3914 17.6168 31.785 17.9147 32.0764C18.2126 32.3678 18.6183 32.5331 19.0425 32.536C22.0902 32.536 25.139 32.536 28.1888 32.536H33.0418Z" fill="#0CFFD1"/>
<path d="M38.8261 13.9892C38.6925 13.7145 38.4759 13.4852 38.2046 13.3315C37.9334 13.1778 37.6203 13.107 37.3065 13.1282C31.2282 13.1282 25.1499 13.1282 19.0715 13.1282C18.8532 13.1263 18.6364 13.1629 18.4317 13.2362C18.0894 13.3748 17.8078 13.6239 17.635 13.9408C17.4622 14.2578 17.4091 14.6228 17.4847 14.9734C17.5604 15.324 17.76 15.6383 18.0496 15.8624C18.3391 16.0865 18.7004 16.2066 19.0715 16.2019H37.3065C37.5538 16.2154 37.8009 16.1724 38.0277 16.0764C38.2545 15.9804 38.4546 15.8341 38.6118 15.6495C38.8196 15.4273 38.9516 15.1489 38.99 14.8519C39.0283 14.5549 38.9711 14.2538 38.8261 13.9892Z" fill="#0CFFD1"/>
<path d="M38.9059 22.3303C38.7929 22.0127 38.5756 21.7393 38.2869 21.5516C37.9982 21.3639 37.654 21.2722 37.3063 21.2903H19.097C18.8955 21.2874 18.6948 21.3144 18.5019 21.3706C18.1453 21.4843 17.8415 21.7154 17.6438 22.0235C17.4461 22.3316 17.3671 22.6969 17.4206 23.0556C17.4768 23.4372 17.6791 23.7847 17.9875 24.0297C18.296 24.2747 18.6883 24.3995 19.0874 24.3795H34.6127C35.534 24.3795 36.4554 24.3795 37.3767 24.3795C37.6334 24.3823 37.887 24.3255 38.1161 24.2138C38.3452 24.1022 38.5431 23.939 38.693 23.738C38.843 23.5371 38.9406 23.3043 38.9777 23.0593C39.0147 22.8143 38.9901 22.5642 38.9059 22.3303Z" fill="#0CFFD1"/>
</svg>
