<svg width="51" height="56" viewBox="0 0 51 56" fill="none" xmlns="http://www.w3.org/2000/svg">
<g clip-path="url(#clip0_1295_8140)">
<path d="M48.5267 8.47259C42.4529 7.24404 36.7744 4.9054 31.4429 1.80331C27.3366 -0.583592 23.4455 -0.614305 19.3392 1.79453C13.8232 5.03264 7.89432 7.32301 1.6273 8.66564C0.669902 8.87187 0.375655 9.26237 0.397614 10.2013C0.542541 16.9847 1.37697 23.6584 3.65629 30.0819C7.46832 40.8317 13.9198 49.4974 23.788 55.4734C24.9826 56.1974 25.9005 56.1755 27.0643 55.412C31.4648 52.5249 35.3164 49.0499 38.597 44.9386C46.041 35.606 49.6642 24.8781 50.3274 13.0358C50.3274 12.325 50.2351 11.5966 50.3449 10.899C50.5909 9.40716 50.0024 8.77095 48.5267 8.47259ZM36.2211 44.3375C33.4982 47.501 30.0199 50.0108 26.8754 52.8101C25.8829 53.6964 24.9519 53.6438 23.7924 52.8891C14.5083 46.8429 8.60578 38.3088 5.36028 27.8618C4.45559 24.9483 3.86709 21.9121 3.384 18.8933C2.96678 16.2519 2.9053 13.5535 2.66815 10.662C9.79595 9.18778 16.0498 6.16467 22.2378 2.96166C24.337 1.87351 26.4319 1.89545 28.5443 2.97482C30.7402 4.09807 32.8965 5.33539 35.1846 6.23487C38.9967 7.73546 42.8921 9.0386 46.7788 10.3461C47.5474 10.605 48.0261 10.7981 47.9909 11.7414C47.5518 23.8734 44.236 35.0181 36.2211 44.3375Z" fill="#0CFFD1"/>
<path d="M24.2842 31.6789C21.8819 29.5289 19.6509 27.5325 17.3672 25.4879C16.8314 26.0714 16.3966 26.5497 15.8696 27.1245C18.7945 29.7878 21.6623 32.3985 24.7102 35.1715C28.5442 29.213 32.2552 23.4476 36.0014 17.6295C35.2504 17.1732 34.7102 16.8441 34.0954 16.4712C30.7796 21.6048 27.5648 26.5936 24.2842 31.6789Z" fill="#0CFFD1"/>
</g>
<defs>
<clipPath id="clip0_1295_8140">
<rect width="50" height="56" fill="white" transform="translate(0.397461)"/>
</clipPath>
</defs>
</svg>
